<?xml version="1.0" encoding="utf-8"?>
<!-- Generator: Adobe Illustrator 24.1.3, SVG Export Plug-In . SVG Version: 6.00 Build 0)  -->
<svg version="1.1" id="Capa_1" xmlns="http://www.w3.org/2000/svg" xmlns:xlink="http://www.w3.org/1999/xlink" x="0px" y="0px"
	 viewBox="0 0 406 512" style="enable-background:new 0 0 406 512;" xml:space="preserve">
<style type="text/css">
	.st0{fill:#E53244;}
</style>
<g>
	<g>
		<path class="st0" d="M405.7,422.2l-22.9-288.1c-1.4-18.6-17.1-33.1-35.7-33.1h-45.2v-2c0-54.6-44.4-99-99-99s-99,44.4-99,99v2
			H58.8c-18.6,0-34.3,14.5-35.7,33.1L0.2,422.3c-1.8,23.1,6.2,46,22,63s38,26.7,61.2,26.7h239.2c23.1,0,45.4-9.7,61.2-26.7
			C399.5,468.3,407.5,445.3,405.7,422.2z M134,99c0-38,30.9-69,69-69s69,30.9,69,69v2H134V99z M361.8,464.9
			c-10.2,11-24.1,17.1-39.2,17.1H83.4c-15,0-28.9-6.1-39.2-17.1c-10.2-11-15.2-25.4-14.1-40.3L53,136.4c0.2-3,2.8-5.4,5.8-5.4H104
			v36.9c0,8.3,6.7,15,15,15s15-6.7,15-15V131h138v36.9c0,8.3,6.7,15,15,15s15-6.7,15-15V131h45.2c3,0,5.6,2.4,5.8,5.4l22.9,288.1
			C377,439.5,372,453.9,361.8,464.9z"/>
	</g>
</g>
<g>
	<g>
		<path class="st0" d="M270.5,254.3c-5.9-5.9-15.3-5.9-21.2,0l-67,67l-25.7-25.7c-5.9-5.9-15.4-5.9-21.2,0c-5.9,5.9-5.9,15.4,0,21.2
			l36.3,36.3c2.9,2.9,6.8,4.4,10.6,4.4S190,356,193,353l77.6-77.6C276.4,269.6,276.4,260.1,270.5,254.3z"/>
	</g>
</g>
</svg>
