<?xml version="1.0" encoding="utf-8"?>
<!-- Generator: Adobe Illustrator 24.1.3, SVG Export Plug-In . SVG Version: 6.00 Build 0)  -->
<svg version="1.1" id="圖層_1" xmlns="http://www.w3.org/2000/svg" xmlns:xlink="http://www.w3.org/1999/xlink" x="0px" y="0px"
	 viewBox="0 0 220.5 129.9" style="enable-background:new 0 0 220.5 129.9;" xml:space="preserve">
<style type="text/css">
	.st0{fill:#F7F8F8;}
	.st1{fill:#DCDDDD;}
	.st2{fill:none;}
	.st3{fill:#EFEFEF;}
	.st4{fill:#FFFFFF;}
	.st5{fill:#920783;}
	.st6{fill:#D70051;}
	.st7{fill:#EA5514;}
	.st8{fill:#F39800;}
	.st9{fill:#E83828;}
	.st10{fill:#F8B62D;}
</style>
<g>
	<polygon class="st0" points="152.3,80.2 136.3,129.7 220.5,129.6 	"/>
	<polygon class="st1" points="68.1,80.3 0,129.9 84.2,129.8 68.1,80.3 	"/>
	<polygon class="st2" points="152.3,80.2 178.2,0 110.1,49.6 110.1,49.6 	"/>
	<polygon class="st2" points="110.1,49.6 41.9,0.2 68.1,80.3 	"/>
	<polygon points="41.9,0.2 68.1,80.3 68.1,80.3 	"/>
	<polygon class="st3" points="110.3,22.3 110.1,49.6 41.9,0.2 	"/>
	<polyline class="st0" points="178.4,0.2 110.1,49.6 110,22.3 178.4,0.2 	"/>
	<polygon class="st3" points="41.9,0.2 0,129.9 68.1,80.3 	"/>
	<polygon class="st4" points="178.4,0.2 152.3,80.2 220.5,129.6 	"/>
</g>
</svg>
